{"title":"The Broken (2008) 720p DVDR FrHdgy","uid":7201589,"size":4401537024,"categoryP":"video","categoryS":"movies_dvdr","magnet":"?xt=urn:btih:2be662bbe1795f9007e4248340699f4cb31a00d4&amp;dn=The+Broken+%282008%29+720p+DVDR+FrHdgy&amp;tr=udp%3A%2F%2Ftracker.openbittorrent.com%3A80&amp;tr=udp%3A%2F%2Fopen.demonii.com%3A1337&amp;tr=udp%3A%2F%2Ftracker.coppersurfer.tk%3A6969&amp;tr=udp%3A%2F%2Fexodus.desync.com%3A6969","seeders":1,"leechers":1,"uploader":"Frankenhedgie","files":-1,"time":1334954965,"description":"Title:  The Broken (2008)\n\nStarring: Lena Headey, Melvil Poupaud, Ulrich Thomsen, Richard Jenkins.  Directed by Sean Ellis.\n\nIMdB code: http://www.imdb.com/title/tt0906734/\n\nSummary: A psychological thriller centred around a London doctor whose relatives' mirrors start to break, seemingly at random, followed by strange, untypical behaviour.  A chance encounter in the street with someone who could not possibly be there leads her to investigate, at the risk of her sanity, and her life.\n\nGeneral\nFormat                           : MPEG-PS\nFile size                        : 1 023 MiB\nDuration                         : 93mn\nOverall bit rate                 : 6 047 Kbps\n\nVideo\nID                               : 224 (0xE0)\nFormat                           : MPEG Video\nFormat version                   : Version 2\nFormat profile                   : Main@Main\nFormat settings, BVOP            : Yes\nFormat settings, Matrix          : Default\nDuration                         : 93mn\nBit rate mode                    : Variable\nBit rate                         : 5 479 Kbps\nNominal bit rate                 : 9 800 Kbps\nWidth                            : 720 pixels\nHeight                           : 480 pixels\nDisplay aspect ratio             : 16:9\nFrame rate                       : 23.976 fps\nStandard                         : NTSC\nColor space                      : YUV\nChroma subsampling               : 4:2:0\nBit depth                        : 8 bits\nScan type                        : Progressive\nScan order                       : 2:3 Pulldown\nCompression mode                 : Lossy\nBits/(Pixel*Frame)               : 0.661\nStream size                      : 927 MiB (91%)\n\nAudio\nID                               : 189 (0xBD)-128 (0x80)\nFormat                           : AC-3\nFormat/Info                      : Audio Coding 3\nMode extension                   : CM (complete main)\nMuxing mode                      : DVD-Video\nDuration                         : 23mn 39s\nBit rate mode                    : Constant\nBit rate                         : 448 Kbps\nChannel(s)                       : 6 channels\nChannel positions                : Front: L C R, Side: L R, LFE\nSampling rate                    : 48.0 KHz\nBit depth                        : 16 bits\nCompression mode                 : Lossy\nStream size                      : 75.8 MiB (7%)\n\nText\nID                               : 224 (0xE0)-DVD-2\nFormat                           : EIA-608\nMuxing mode                      : DVD-Video\nMuxing mode, more info           : Muxed in Video #1\nStream size                      : 0.00 Byte (0%)\n\n\n[img]http://bayimg.com/OAohfaaDC[/img]\n\n[img]http://bayimg.com/OAOHGAADc[/img]\n\n[img]http://bayimg.com/pAOHfaADC[/img]","torrent":{"xt":"urn:btih:2be662bbe1795f9007e4248340699f4cb31a00d4","amp;dn":"The+Broken+%282008%29+720p+DVDR+FrHdgy","amp;tr":["udp%3A%2F%2Ftracker.openbittorrent.com%3A80","udp%3A%2F%2Fopen.demonii.com%3A1337","udp%3A%2F%2Ftracker.coppersurfer.tk%3A6969","udp%3A%2F%2Fexodus.desync.com%3A6969"],"infoHash":"2be662bbe1795f9007e4248340699f4cb31a00d4","infoHashBuffer":{"type":"Buffer","data":[43,230,98,187,225,121,95,144,7,228,36,131,64,105,159,76,179,26,0,212]},"announce":[],"urlList":[]}}